<?xml version="1.0" encoding="UTF-8"?><svg id="Layer_1" xmlns="http://www.w3.org/2000/svg" viewBox="0 0 814.15 46.49"><defs><style>.cls-1{fill:#2c76b7;}</style></defs><g><path d="M81.28,.02H0V46.49H8.74V8.76H40.88V46.49h8.74V8.76h31.67c.25,0,.47,.22,.47,.47V46.49h8.74V9.23C90.49,4.15,86.36,.02,81.28,.02Z"/><path d="M180.77,.02H108.69c-5.08,0-9.21,4.13-9.21,9.21V46.49h8.74V27.57h73.01v18.92h8.74V9.23C189.97,4.15,185.84,.02,180.77,.02ZM108.22,18.83V9.23c0-.25,.22-.47,.47-.47h72.07c.25,0,.47,.22,.47,.47v9.6H108.22Z"/><path d="M208.18,8.76h76.9V.02h-76.9c-5.08,0-9.21,4.13-9.21,9.21v28.01c0,5.08,4.13,9.21,9.21,9.21h67.69c5.08,0,9.21-4.13,9.21-9.21V18.96h-28.56v8.74h19.35c.25,0,.47,.22,.47,.47v9.08c0,.25-.22,.47-.47,.47h-67.69c-.25,0-.47-.22-.47-.47V9.23c0-.25,.22-.47,.47-.47Z"/><path d="M375.35,.02h-81.28V46.49s8.74,0,8.74,0V8.76h72.54c.25,0,.47,.22,.47,.47V46.49h8.74V9.23c0-5.08-4.13-9.21-9.21-9.21Z"/><path d="M474.84,46.46h-72.07c-5.08,0-9.21-4.13-9.21-9.21V0h8.74V37.26c0,.25,.22,.47,.47,.47h72.07c.25,0,.47-.22,.47-.47V0h8.74V37.26c0,5.08-4.13,9.21-9.21,9.21Z"/><path d="M574.32,.02h-81.28V46.49h8.74V8.76h32.14V46.49h8.74V8.76h31.67c.25,0,.47,.22,.47,.47V46.49h8.74V9.23c0-5.08-4.13-9.21-9.21-9.21Z"/></g><g><rect class="cls-1" x="592.53" y="18.96" width="27" height="8.74"/><path class="cls-1" d="M709.81,46.49h-72.07c-5.08,0-9.21-4.13-9.21-9.21V9.21C628.53,4.13,632.66,0,637.74,0h72.07c5.08,0,9.21,4.13,9.21,9.21v28.07c0,5.08-4.13,9.21-9.21,9.21Zm-72.07-37.75c-.25,0-.47,.22-.47,.47v28.07c0,.25,.22,.47,.47,.47h72.07c.25,0,.47-.22,.47-.47V9.21c0-.25-.22-.47-.47-.47h-72.07Z"/><path class="cls-1" d="M804.93,46.48h-76.91v-8.74h76.91c.25,0,.47-.22,.47-.47v-9.23c0-.25-.22-.47-.47-.47h-67.69c-5.08,0-9.21-4.13-9.21-9.21V9.21c0-5.08,4.13-9.21,9.21-9.21h76.91V8.74h-76.91c-.25,0-.47,.22-.47,.47v9.17c0,.25,.22,.47,.47,.47h67.69c5.08,0,9.21,4.13,9.21,9.21v9.23c0,5.08-4.13,9.21-9.21,9.21Z"/></g></svg>